<svg width="1196" height="502" viewBox="0 0 1196 502" fill="none" xmlns="http://www.w3.org/2000/svg">
<path d="M1106.3 134.529C1136.82 134.529 1159.4 141.223 1174.04 154.61C1188.68 167.998 1196 189.324 1196 218.59V389.045H1158.16V353.553H1156.29C1149.12 362.581 1141.65 370.209 1133.86 376.436C1126.39 382.351 1117.67 386.71 1107.7 389.512C1098.04 392.314 1086.21 393.715 1072.19 393.715C1057.24 393.715 1043.69 391.068 1031.55 385.776C1019.71 380.483 1010.37 372.388 1003.51 361.492C996.662 350.284 993.236 336.274 993.236 319.462C993.236 294.555 1003.05 275.408 1022.67 262.02C1042.29 248.322 1072.5 240.85 1113.31 239.605L1155.82 238.204V223.26C1155.82 202.4 1151.3 187.923 1142.27 179.829C1133.24 171.734 1120.47 167.687 1103.96 167.687C1090.88 167.687 1078.42 169.71 1066.59 173.758C1054.75 177.494 1043.69 181.852 1033.41 186.833L1020.8 156.011C1031.7 150.096 1044.63 145.115 1059.58 141.068C1074.53 136.709 1090.1 134.529 1106.3 134.529ZM1118.44 268.091C1087.3 269.337 1065.65 274.318 1053.5 283.036C1041.67 291.753 1035.75 304.051 1035.75 319.929C1035.75 333.939 1039.96 344.213 1048.37 350.751C1057.09 357.289 1068.14 360.558 1081.54 360.558C1102.72 360.558 1120.31 354.798 1134.33 343.279C1148.35 331.448 1155.35 313.391 1155.35 289.107V266.69L1118.44 268.091Z" fill="#F9F0FF"/>
<path d="M974.986 138.178C979.658 138.178 984.641 138.489 989.936 139.112C995.542 139.423 1000.37 140.046 1004.42 140.98L999.28 178.807C995.231 177.873 990.715 177.095 985.731 176.472C981.059 175.849 976.543 175.538 972.182 175.538C962.527 175.538 953.339 177.562 944.618 181.609C935.897 185.656 928.11 191.416 921.258 198.888C914.405 206.049 908.955 214.766 904.906 225.04C901.168 235.314 899.299 246.833 899.299 259.598V393.16H858.186V142.848H894.686V188.614H898.365C903.66 179.274 910.045 170.868 917.52 163.396C924.995 155.613 933.561 149.542 943.216 145.183C952.871 140.513 963.461 138.178 974.986 138.178Z" fill="#F9F0FF"/>
<path d="M735.312 134.938C756.804 134.938 775.18 139.608 790.442 148.948C806.015 158.288 817.851 171.52 825.949 188.643C834.359 205.455 838.563 225.225 838.563 247.952V272.703H667.101C667.724 301.034 674.888 322.672 688.593 337.616C702.609 352.249 722.075 359.565 746.992 359.565C762.877 359.565 776.893 358.164 789.04 355.362C801.499 352.249 825.482 342.753 838.563 337.149V373.502C825.793 379.106 801.966 387.896 789.507 390.387C777.049 393.189 762.254 394.59 745.124 394.59C721.452 394.59 700.428 389.764 682.052 380.113C663.987 370.462 649.815 356.14 639.537 337.149C629.57 317.846 624.586 294.341 624.586 266.632C624.586 239.235 629.102 215.729 638.135 196.115C647.479 176.501 660.405 161.401 676.913 150.816C693.732 140.231 713.198 134.938 735.312 134.938ZM734.845 168.562C715.223 168.562 699.65 174.944 688.125 187.709C676.913 200.162 670.216 217.597 668.036 240.013H795.581C795.581 225.692 793.401 213.238 789.04 202.653C784.68 192.068 777.983 183.817 768.951 177.902C760.23 171.675 748.861 168.562 734.845 168.562Z" fill="#F9F0FF"/>
<path d="M591.24 361.229C597.47 361.229 603.855 360.762 610.395 359.828C616.936 358.582 622.231 357.337 626.28 356.092V387.381C621.92 389.56 615.69 391.272 607.592 392.518C599.494 394.074 591.707 394.853 584.232 394.853C571.151 394.853 559.004 392.673 547.791 388.315C536.889 383.645 528.013 375.706 521.16 364.498C514.308 353.29 510.882 337.567 510.882 317.331V171.627H469.5L479.5 139.871H520.606V82.4297H551.996V139.871H624.411V171.627H551.996V316.397C551.996 331.652 555.577 343.016 562.741 350.488C570.216 357.648 579.716 361.229 591.24 361.229Z" fill="#F9F0FF"/>
<path d="M223.087 139.608H267.004L321.199 282.043C324.314 290.449 327.117 298.544 329.609 306.327C332.412 314.11 334.904 321.738 337.084 329.21C339.264 336.371 340.977 343.376 342.223 350.225H344.092C345.961 342.442 348.92 332.323 352.969 319.87C357.018 307.105 361.223 294.341 365.583 281.576L416.508 139.608H460.892L352.969 424.478C347.051 440.045 340.043 453.588 331.945 465.107C324.158 476.938 314.503 485.966 302.979 492.193C291.766 498.731 278.061 502 261.865 502C254.39 502 247.849 501.533 242.243 500.599C236.636 499.976 231.809 499.198 227.759 498.264V465.574C231.186 466.197 235.235 466.819 239.907 467.442C244.89 468.065 250.029 468.376 255.324 468.376C264.98 468.376 273.234 466.508 280.086 462.772C287.25 459.347 293.323 454.21 298.307 447.361C303.29 440.823 307.495 433.04 310.921 424.011L324.002 390.854L223.087 139.608Z" fill="#F9F0FF"/>
<path d="M41.1135 121.395C41.1135 131.98 40.8021 141.943 40.1791 151.283C39.8677 160.312 39.4005 167.472 38.7775 172.765H41.1135C48.2772 162.18 58.0884 153.307 70.5471 146.146C83.0057 138.985 99.0462 135.405 118.669 135.405C149.815 135.405 174.732 146.302 193.42 168.095C212.42 189.577 221.92 221.8 221.92 264.764C221.92 293.407 217.559 317.379 208.838 336.682C200.428 355.985 188.437 370.462 172.864 380.113C157.29 389.764 139.225 394.59 118.669 394.59C99.0462 394.59 83.0057 391.01 70.5471 383.849C58.0884 376.688 48.2772 368.127 41.1135 358.164H37.8431V389.92H0V35H41.1135V121.395ZM111.661 169.496C93.907 169.496 79.891 172.921 69.6127 179.77C59.3343 186.308 52.0148 196.582 47.6543 210.592C43.2938 224.291 41.1135 241.881 41.1135 263.363V265.231C41.1135 296.053 46.097 319.714 56.0639 336.215C66.3423 352.404 85.186 360.499 112.595 360.499C135.021 360.499 151.684 352.249 162.585 335.748C173.798 319.247 179.404 295.43 179.404 264.297C179.404 232.852 173.798 209.191 162.585 193.313C151.684 177.435 134.709 169.496 111.661 169.496Z" fill="#F9F0FF"/>
<path d="M381 348L465.411 114.474L537 0L482.507 188.882L381 348Z" fill="#13F49A"/>
</svg>
